HIERARCHY
ROOT Hips
{
	OFFSET 0.00000 0.00000 0.00000
	CHANNELS 6 Xposition Yposition Zposition Zrotation Yrotation Xrotation 
	JOINT LHipJoint
	{
		OFFSET 0 0 0
		CHANNELS 3 Zrotation Yrotation Xrotation
		JOINT LeftHip
		{
			OFFSET 1.75344 -1.53157 0.77399
			CHANNELS 3 Zrotation Yrotation Xrotation
			JOINT LeftKnee
			{
				OFFSET 2.25415 -6.19323 0.00000
				CHANNELS 3 Zrotation Yrotation Xrotation
				JOINT LeftAnkle
				{
					OFFSET 2.30342 -6.32861 0.00000
					CHANNELS 3 Zrotation Yrotation Xrotation
					JOINT LeftToe
					{
						OFFSET 0.10958 -0.30108 1.49206
						CHANNELS 3 Zrotation Yrotation Xrotation
						End Site
						{
							OFFSET 0.00000 -0.00000 0.77783
						}
					}
				}
			}
		}
	}
	JOINT RHipJoint
	{
		OFFSET 0 0 0
		CHANNELS 3 Zrotation Yrotation Xrotation
		JOINT RightHip
		{
			OFFSET -1.81912 -1.53156 0.77399
			CHANNELS 3 Zrotation Yrotation Xrotation
			JOINT RightKnee
			{
				OFFSET -2.22882 -6.12365 0.00000
				CHANNELS 3 Zrotation Yrotation Xrotation
				JOINT RightAnkle
				{
					OFFSET -2.21943 -6.09785 0.00000
					CHANNELS 3 Zrotation Yrotation Xrotation
					JOINT RightToe
					{
						OFFSET -0.18931 -0.52012 1.59379
						CHANNELS 3 Zrotation Yrotation Xrotation
						End Site
						{
							OFFSET -0.00000 -0.00000 0.84686
						}
					}
				}
			}
		}
	}
	JOINT lowerback
	{
		OFFSET 0 0 0
		CHANNELS 3 Zrotation Yrotation Xrotation
		JOINT Chest
		{
			OFFSET -0.00200 1.66634 -0.14248
			CHANNELS 3 Zrotation Yrotation Xrotation
			JOINT Chest2
			{
				OFFSET -0.00875 1.64542 0.09514
				CHANNELS 3 Zrotation Yrotation Xrotation
				JOINT lowerneck
				{
					OFFSET 0 0 0
					CHANNELS 3 Zrotation Yrotation Xrotation
					JOINT Neck
					{
						OFFSET 0.02257 1.59605 0.00839
						CHANNELS 3 Zrotation Yrotation Xrotation
						JOINT Head
						{
							OFFSET -0.10214 1.57530 -0.23335
							CHANNELS 3 Zrotation Yrotation Xrotation
							End Site
							{
								OFFSET -0.03588 1.60717 -0.08062
							}
						}
					}
				}
				JOINT LeftCollar
				{
					OFFSET 0 0 0
					CHANNELS 3 Zrotation Yrotation Xrotation
					JOINT LeftShoulder
					{
						OFFSET 2.54983 1.10186 0.40078
CHANNELS 3 Zrotation Xrotation Yrotation
						JOINT LeftElbow
						{
OFFSET 0 -4.288400 0.000000
CHANNELS 3 Zrotation Xrotation Yrotation
							JOINT LeftWrist
							{
OFFSET 0 -3.065520 -0.000000
CHANNELS 3 Zrotation Xrotation Yrotation
								JOINT lhand
								{
									OFFSET 0 0 0
CHANNELS 3 Zrotation Xrotation Yrotation
									JOINT LFingers
									{
OFFSET 0 -0.753040 0.000000
CHANNELS 3 Zrotation Xrotation Yrotation
										End Site
										{
OFFSET 0 -0.607120 0.000000
										}
									}
								}
								JOINT LThumb
								{
OFFSET 0 0.000000 0.000000
CHANNELS 3 Zrotation Xrotation Yrotation
									End Site
									{
OFFSET 0 -0.616390 0.616390
									}
								}
							}
						}
					}
				}
				JOINT RightCollar
				{
					OFFSET 0 0 0
					CHANNELS 3 Zrotation Yrotation Xrotation
					JOINT RightShoulder
					{
						OFFSET -2.60909 1.35448 0.21802
CHANNELS 3 Zrotation Xrotation Yrotation
						JOINT RightElbow
						{
OFFSET 0 -4.521720 -0.000000
CHANNELS 3 Zrotation Xrotation Yrotation
							JOINT RightWrist
							{
OFFSET 0 -2.891400 0.000000
CHANNELS 3 Zrotation Xrotation Yrotation
								JOINT rhand
								{
									OFFSET 0 0 0
CHANNELS 3 Zrotation Xrotation Yrotation
									JOINT RFingers
									{
OFFSET 0 -0.680540 0.000000
CHANNELS 3 Zrotation Xrotation Yrotation
										End Site
										{
OFFSET 0 -0.548670 0.000000
										}
									}
								}
								JOINT RThumb
								{
OFFSET 0 0.000000 0.000000
CHANNELS 3 Zrotation Xrotation Yrotation
									End Site
									{
OFFSET 0 -0.557050 0.557050
									}
								}
							}
						}
					}
				}
			}
		}
	}
}
MOTION
Frames: 9
Frame Time: 0.008333333333333333
8.905900 15.004300 41.785900 179.394000 -15.814700 179.168000 0.000000 0.000000 0.000000 -27.372300 -27.516500 -0.307400 3.209400 11.026600 32.369500 2.045900 1.142300 -27.486700 1.564900 -7.894000 -22.392600 0.000000 0.000000 0.000000 28.167000 14.704000 1.368300 -2.713100 -10.215500 29.677500 -1.610700 -22.194000 -40.109400 -0.469100 -4.392800 12.184500 2.187700 0.994700 7.264600 0.768700 1.577200 -3.074300 -0.631700 0.676200 -7.270200 6.763700 15.728100 -2.325100 -4.862000 21.184800 13.544100 -1.148300 10.281200 5.726700 -0.000000 -0.000000 0.000000 1.608500 8.783300 -31.205700 23.628100 -34.768500 7.493400 -50.520000 8.817100 9.742700 0.000000 0.000000 0.000000 -7.125000 0.000000 0.000000 -41.771600 5.650000 -57.282000 -0.000000 -0.000000 0.000000 -7.274600 13.360700 38.682200 -21.441800 -32.340500 -6.284600 28.088300 -36.641800 59.865100 0.000000 0.000000 0.000000 7.125000 0.000000 -0.000000 101.046600 63.289300 -72.883600
8.961104 15.054474 41.731816 179.405372 -14.613085 181.610412 0.000000 0.000000 0.000000 -25.674730 -27.245392 -3.014996 3.107930 10.867734 31.835158 2.017731 1.083784 -27.277384 2.038093 -8.943976 -25.620923 0.000000 0.000000 0.000000 28.060957 17.121605 -0.188399 -2.644258 -10.095559 29.286663 -1.425645 -22.741982 -39.795227 -0.386500 -3.991758 11.053579 1.482429 2.253235 4.225248 -0.056063 3.043399 -4.016672 -1.179396 1.397065 -6.468574 9.213102 14.955910 -1.495507 -4.756605 20.003155 13.613400 -1.585530 9.850212 5.782038 0.000000 0.000000 0.000000 4.522020 11.086604 -40.588782 20.649396 -31.416823 5.866082 4.191230 14.674402 33.922789 0.000000 0.000000 0.000000 -7.125000 0.000000 0.000000 -15.555107 -2.928840 -16.954067 0.000000 0.000000 0.000000 -5.524096 16.863268 46.670138 -18.428207 -28.701999 -4.753122 -9.351125 21.135392 51.793943 0.000000 0.000000 0.000000 7.125000 0.000000 0.000000 63.815413 74.323204 -48.472017
8.972088 15.051861 41.733366 179.732351 -14.685750 181.496643 0.000000 0.000000 0.000000 -25.286327 -27.336061 -3.107108 3.151684 10.936645 32.066426 2.012237 1.062235 -27.232831 2.269853 -9.406623 -27.076041 0.000000 0.000000 0.000000 28.517766 17.200233 0.068701 -2.580934 -9.983573 28.923639 -1.406879 -22.844374 -39.812498 -0.457002 -4.336791 12.026203 1.776197 2.248383 4.294996 0.052629 3.064686 -4.051878 -1.236144 1.394384 -6.536629 9.083205 14.972314 -1.177687 -4.798036 20.051399 13.142675 -1.621614 9.882612 5.575748 0.000000 0.000000 0.000000 4.559292 11.173846 -40.763002 20.663233 -31.433139 5.873314 4.194427 14.448614 33.700490 0.000000 0.000000 0.000000 -7.125000 0.000000 0.000000 -15.544508 -2.715804 -16.885709 0.000000 0.000000 0.000000 -5.581941 16.947730 46.758205 -18.279471 -28.513536 -4.681873 -11.253306 23.532751 51.304620 0.000000 0.000000 0.000000 7.125000 0.000000 0.000000 61.037943 74.853068 -46.589713
8.980247 15.051553 41.730924 179.706818 -14.718414 181.354578 0.000000 0.000000 0.000000 -25.363594 -27.240004 -2.950864 3.149271 10.932924 32.053879 2.005003 1.174445 -27.225780 2.384564 -9.624119 -27.768618 0.000000 0.000000 0.000000 28.531518 17.054107 0.161173 -2.584759 -9.990418 28.945764 -1.504087 -22.521500 -39.939153 -0.481366 -4.448221 12.341400 1.689244 2.260636 4.391642 0.042291 3.079648 -3.988951 -1.202825 1.407889 -6.529052 9.168155 14.975329 -1.506204 -4.717846 20.028212 13.324189 -1.576864 9.871965 5.685434 0.000000 0.000000 0.000000 4.485147 11.039265 -40.372223 20.445505 -31.175303 5.760211 5.256691 14.580744 34.092809 0.000000 0.000000 0.000000 -7.125000 0.000000 0.000000 -14.987095 -3.208196 -16.359554 0.000000 0.000000 0.000000 -5.623533 16.937833 47.065582 -18.286563 -28.522477 -4.685263 -11.170885 22.978260 51.101059 0.000000 0.000000 0.000000 7.125000 0.000000 0.000000 60.391011 74.738991 -45.903408
8.988851 15.044310 41.732337 179.622978 -14.866299 181.053351 0.000000 0.000000 0.000000 -25.565588 -27.118697 -2.668359 3.171279 10.967246 32.169491 2.026298 1.208682 -27.381061 2.479788 -9.801032 -28.334756 0.000000 0.000000 0.000000 28.621000 16.946856 0.536611 -2.579924 -9.981813 28.917722 -1.452993 -22.820535 -40.004574 -0.474325 -4.416151 12.250634 1.639569 2.211138 4.717415 0.051551 3.021768 -3.946066 -1.173627 1.382089 -6.676346 9.058436 14.994281 -1.371725 -4.649053 20.056715 13.235961 -1.556055 9.888690 5.619237 0.000000 0.000000 0.000000 4.433786 11.085744 -40.316925 20.501500 -31.241831 5.789189 4.500828 14.653705 33.656476 0.000000 0.000000 0.000000 -7.125000 0.000000 0.000000 -15.376319 -2.706016 -16.687221 0.000000 0.000000 0.000000 -5.752340 16.860941 47.388773 -18.276777 -28.510180 -4.680608 -11.188486 22.375168 51.288460 0.000000 0.000000 0.000000 7.125000 0.000000 0.000000 61.020909 74.821625 -46.541981
8.998119 15.047657 41.728992 179.521937 -14.924297 181.303631 0.000000 0.000000 0.000000 -25.594027 -27.450972 -2.764860 3.162060 10.952880 32.121137 2.009469 1.323056 -27.311174 2.478384 -9.798433 -28.326474 0.000000 0.000000 0.000000 28.501650 17.074007 0.295296 -2.595057 -10.008794 29.005101 -1.520444 -22.704482 -40.200429 -0.500031 -4.533338 12.582135 1.449827 2.190126 4.399829 0.090532 2.971504 -3.960616 -1.008498 1.367854 -6.521404 8.949757 15.022742 -1.588110 -4.729709 20.103871 13.293319 -1.541483 9.897043 5.672963 0.000000 0.000000 0.000000 4.242698 11.081932 -40.097982 20.477433 -31.213240 5.776678 4.940978 14.809682 33.548369 0.000000 0.000000 0.000000 -7.125000 0.000000 0.000000 -15.133037 -2.649668 -16.388781 0.000000 0.000000 0.000000 -6.039198 16.857666 47.890746 -18.309160 -28.551237 -4.696115 -11.819822 23.063192 51.391369 0.000000 0.000000 0.000000 7.125000 0.000000 0.000000 60.999727 75.103464 -46.820435
9.008648 15.045077 41.727647 179.342960 -15.039210 181.211584 0.000000 0.000000 0.000000 -25.635222 -26.878276 -2.871244 3.142086 10.921608 32.015751 2.006960 0.817608 -27.109624 2.442758 -9.733140 -28.116640 0.000000 0.000000 0.000000 28.370084 16.839776 0.306362 -2.615956 -10.045717 29.124858 -1.434563 -22.952949 -40.054003 -0.427933 -4.197970 11.634305 1.371324 2.142353 4.507765 -0.040272 2.899948 -3.899321 -1.096996 1.335367 -6.517348 9.132609 15.018325 -1.598008 -4.843044 20.101917 13.189986 -1.598682 9.901014 5.672339 0.000000 0.000000 0.000000 4.463223 10.904706 -40.214222 20.453964 -31.185410 5.764618 4.344621 14.507861 33.796805 0.000000 0.000000 0.000000 -7.125000 0.000000 0.000000 -15.467082 -2.823715 -16.823260 0.000000 0.000000 0.000000 -5.894063 16.842736 47.817096 -18.495228 -28.786488 -4.785441 -11.075275 21.827067 51.975629 0.000000 0.000000 0.000000 7.125000 0.000000 0.000000 63.483249 75.037672 -48.953508
9.021858 15.044727 41.725800 179.378856 -15.381776 181.282940 0.000000 0.000000 0.000000 -25.605353 -27.446797 -2.747776 3.144901 10.925946 32.030591 2.005774 0.885817 -27.126168 2.260193 -9.388128 -27.017247 0.000000 0.000000 0.000000 28.539277 17.010823 0.380666 -2.595260 -10.009148 29.006357 -1.551710 -23.094419 -40.739070 -0.491700 -4.495703 12.475588 1.187218 2.033986 4.469314 0.077105 2.745669 -3.928044 -0.856184 1.269512 -6.543898 8.875423 15.108597 -1.921866 -4.563721 20.191058 13.388127 -1.445275 9.940204 5.738527 0.000000 0.000000 0.000000 4.328851 10.863415 -40.209997 20.554660 -31.304778 5.816831 3.264951 14.917509 33.317584 0.000000 0.000000 0.000000 -7.125000 0.000000 0.000000 -16.034655 -2.253288 -17.335452 0.000000 0.000000 0.000000 -5.969353 16.742168 48.061547 -18.088775 -28.270690 -4.591209 -12.585446 24.306074 51.059664 0.000000 0.000000 0.000000 7.125000 0.000000 0.000000 59.364773 75.262155 -45.554277
9.030930 15.046990 41.724917 179.541419 -15.436742 181.315386 0.000000 0.000000 0.000000 -25.401217 -27.667439 -2.834142 3.168057 10.962297 32.152881 1.997571 0.984324 -27.106033 2.396339 -9.645899 -27.838374 0.000000 0.000000 0.000000 28.756042 17.102130 0.368722 -2.582585 -9.986543 28.933159 -1.569369 -22.969896 -40.694042 -0.581583 -4.883146 13.575496 1.290903 2.041068 4.555959 0.154077 2.765483 -4.034790 -0.841649 1.271918 -6.705854 8.731680 15.190164 -1.889782 -4.363553 20.286359 13.420307 -1.363574 9.991925 5.714130 0.000000 0.000000 0.000000 4.252960 11.066529 -40.295076 20.462556 -31.195649 5.769088 5.161834 14.432031 34.147159 0.000000 0.000000 0.000000 -7.125000 0.000000 0.000000 -15.040932 -3.249795 -16.433057 0.000000 0.000000 0.000000 -5.976183 16.806806 47.963642 -17.987168 -28.140771 -4.543166 -12.365306 24.537555 51.519250 0.000000 0.000000 0.000000 7.125000 0.000000 0.000000 61.132590 75.362482 -47.210084
